# xmcd CD database file
#
# Track frame offsets:
#	150
#	10459
#	22749
#	40101
#	53275
#	66864
#	77499
#	100819
#	113411
#	133240
#	152112
#	167978
#	185867
#
# Disc length: 2687 seconds
#
# Revision: 0
# Processed by: cddbd v1.5.2PL0 Copyright (c) Steve Scherf et al.
# Submitted via: CDex 1.70beta2
#
DISCID=9d0a7d0d
DTITLE=Uncle Bobs Jug Band - So Who Get's The Bed
DYEAR=1900
DGENRE=Country
TTITLE0=Bright Side Of Life
TTITLE1=Auctioneer
TTITLE2=True Blue
TTITLE3=It Takes A Worried Man
TTITLE4=Jeepers Creepers
TTITLE5=Love To Have A Beer
TTITLE6=Ghost Riders
TTITLE7=Ain't Gonna Rain
TTITLE8=Love Me Again
TTITLE9=St. Louis Blues
TTITLE10=Granny's A Cripple
TTITLE11=Barnyard Dance
TTITLE12=House Of The Rising Sun
EXTD=
EXTT0=
EXTT1=
EXTT2=
EXTT3=
EXTT4=
EXTT5=
EXTT6=
EXTT7=
EXTT8=
EXTT9=
EXTT10=
EXTT11=
EXTT12=
PLAYORDER=
